<svg width="103" height="59" viewBox="0 0 103 59" fill="none" xmlns="http://www.w3.org/2000/svg">
<path d="M0.602169 13.7383C0.278629 14.501 0.634586 15.3815 1.39722 15.705L13.8251 20.9774C14.5877 21.301 15.4682 20.945 15.7918 20.1824C16.1153 19.4198 15.7594 18.5392 14.9967 18.2157L3.94974 13.5291L8.63634 2.48212C8.95988 1.71949 8.60392 0.838966 7.84129 0.515422C7.07866 0.191883 6.19814 0.547836 5.87459 1.31047L0.602169 13.7383ZM90.1565 58.2585C101.011 44.6278 104.262 33.4769 101.573 24.7123C98.8845 15.9482 90.4668 10.2532 79.6641 7.01241C58.0253 0.520771 25.1712 3.3323 1.42086 12.9335L2.54523 15.7148C25.7949 6.31601 57.9408 3.62754 78.802 9.8859C89.2493 13.0201 96.4566 18.2626 98.7053 25.5922C100.954 32.9214 98.4555 43.0206 87.8096 56.3898L90.1565 58.2585Z" fill="black"/>
</svg>
