<svg width="103" height="58" viewBox="0 0 103 58" fill="none" xmlns="http://www.w3.org/2000/svg">
<path d="M102.364 44.5858C102.687 43.8232 102.331 42.9427 101.569 42.6191L89.1408 37.3467C88.3781 37.0232 87.4976 37.3791 87.1741 38.1418C86.8505 38.9044 87.2065 39.7849 87.9691 40.1084L99.0161 44.795L94.3295 55.842C94.0059 56.6047 94.3619 57.4852 95.1245 57.8087C95.8872 58.1323 96.7677 57.7763 97.0912 57.0137L102.364 44.5858ZM12.8094 0.0656091C1.95521 13.6964 -1.29645 24.8473 1.39248 33.6118C4.08128 42.376 12.499 48.0709 23.3017 51.3117C44.9406 57.8034 77.7947 54.9919 101.545 45.3907L100.421 42.6093C77.1709 52.0081 45.025 54.6966 24.1638 48.4383C13.7165 45.3041 6.50923 40.0615 4.26054 32.7319C2.01198 25.4027 4.51033 15.3036 15.1562 1.93439L12.8094 0.0656091Z" fill="black"/>
</svg>
